{
  "accessors": [
    {
      "bufferView": 2,
      "componentType": 5126,
      "count": 15133,
      "max": [
        32.941368103027344,
        180.29296875,
        176.69476318359375
      ],
      "min": [
        -32.941368103027344,
        -0.20294857025146484,
        -176.69476318359375
      ],
      "type": "VEC3"
    },
    {
      "bufferView": 2,
      "byteOffset": 181596,
      "componentType": 5126,
      "count": 15133,
      "max": [
        0.9998993277549744,
        0.9999926090240479,
        0.9997825026512146
      ],
      "min": [
        -0.9999611377716064,
        -0.9999921321868896,
        -0.9999390840530396
      ],
      "type": "VEC3"
    },
    {
      "bufferView": 3,
      "componentType": 5126,
      "count": 15133,
      "max": [
        0.9999317526817322,
        0.9999670386314392,
        0.9999186992645264,
        1.0
      ],
      "min": [
        -0.9999935030937195,
        -0.9999964237213135,
        -0.9999836087226868,
        -1.0
      ],
      "type": "VEC4"
    },
    {
      "bufferView": 1,
      "componentType": 5126,
      "count": 15133,
      "max": [
        0.9928680062294006,
        0.9924101233482361
      ],
      "min": [
        0.007310748100280762,
        0.00728684663772583
      ],
      "type": "VEC2"
    },
    {
      "bufferView": 1,
      "byteOffset": 121064,
      "componentType": 5126,
      "count": 15133,
      "max": [
        0.9928680062294006,
        0.9924101233482361
      ],
      "min": [
        0.007310748100280762,
        0.00728684663772583
      ],
      "type": "VEC2"
    },
    {
      "bufferView": 1,
      "byteOffset": 242128,
      "componentType": 5126,
      "count": 15133,
      "max": [
        0.9928680062294006,
        0.9924101233482361
      ],
      "min": [
        0.007310748100280762,
        0.00728684663772583
      ],
      "type": "VEC2"
    },
    {
      "bufferView": 1,
      "byteOffset": 363192,
      "componentType": 5126,
      "count": 15133,
      "max": [
        0.9928680062294006,
        0.9924101233482361
      ],
      "min": [
        0.007310748100280762,
        0.00728684663772583
      ],
      "type": "VEC2"
    },
    {
      "bufferView": 1,
      "byteOffset": 484256,
      "componentType": 5126,
      "count": 15133,
      "max": [
        0.9928680062294006,
        0.9924101233482361
      ],
      "min": [
        0.007310748100280762,
        0.00728684663772583
      ],
      "type": "VEC2"
    },
    {
      "bufferView": 0,
      "componentType": 5125,
      "count": 82158,
      "type": "SCALAR"
    }
  ],
  "asset": {
    "extras": {
      "author": "Blender Guru (https://sketchfab.com/psk98077)",
      "license": "CC-BY-4.0 (http://creativecommons.org/licenses/by/4.0/)",
      "source": "https://sketchfab.com/3d-models/tiger-41715dce759b45ae9f19d915ba95f381",
      "title": "Tiger"
    },
    "generator": "Sketchfab-16.21.0",
    "version": "2.0"
  },
  "bufferViews": [
    {
      "buffer": 0,
      "byteLength": 328632,
      "name": "floatBufferViews",
      "target": 34963
    },
    {
      "buffer": 0,
      "byteLength": 605320,
      "byteOffset": 328632,
      "byteStride": 8,
      "name": "floatBufferViews",
      "target": 34962
    },
    {
      "buffer": 0,
      "byteLength": 363192,
      "byteOffset": 933952,
      "byteStride": 12,
      "name": "floatBufferViews",
      "target": 34962
    },
    {
      "buffer": 0,
      "byteLength": 242128,
      "byteOffset": 1297144,
      "byteStride": 16,
      "name": "floatBufferViews",
      "target": 34962
    }
  ],
  "buffers": [
    {
      "byteLength": 1539272,
      "uri": "scene.bin"
    }
  ],
  "extensionsRequired": [
    "KHR_materials_pbrSpecularGlossiness"
  ],
  "extensionsUsed": [
    "KHR_materials_pbrSpecularGlossiness"
  ],
  "images": [
    {
      "uri": "textures/material_0_diffuse.png"
    },
    {
      "uri": "textures/material_0_specularGlossiness.png"
    },
    {
      "uri": "textures/material_0_normal.png"
    },
    {
      "uri": "textures/material_0_occlusion.png"
    }
  ],
  "materials": [
    {
      "doubleSided": true,
      "extensions": {
        "KHR_materials_pbrSpecularGlossiness": {
          "diffuseFactor": [
            1.0,
            1.0,
            1.0,
            1.0
          ],
          "diffuseTexture": {
            "index": 0
          },
          "glossinessFactor": 1.0,
          "specularFactor": [
            1.0,
            1.0,
            1.0
          ],
          "specularGlossinessTexture": {
            "index": 1
          }
        }
      },
      "name": "material_0",
      "normalTexture": {
        "index": 2
      },
      "occlusionTexture": {
        "index": 3
      }
    }
  ],
  "meshes": [
    {
      "name": "Object_0",
      "primitives": [
        {
          "attributes": {
            "NORMAL": 1,
            "POSITION": 0,
            "TANGENT": 2,
            "TEXCOORD_0": 3,
            "TEXCOORD_1": 4,
            "TEXCOORD_2": 5,
            "TEXCOORD_3": 6,
            "TEXCOORD_4": 7
          },
          "indices": 8,
          "material": 0,
          "mode": 4
        }
      ]
    }
  ],
  "nodes": [
    {
      "children": [
        1
      ],
      "matrix": [
        1.0,
        0.0,
        0.0,
        0.0,
        0.0,
        2.220446049250313e-16,
        -1.0,
        0.0,
        0.0,
        1.0,
        2.220446049250313e-16,
        0.0,
        0.0,
        0.0,
        0.0,
        1.0
      ],
      "name": "Sketchfab_model"
    },
    {
      "children": [
        2
      ],
      "name": "root"
    },
    {
      "children": [
        3
      ],
      "matrix": [
        1.0,
        0.0,
        0.0,
        0.0,
        0.0,
        2.220446049250313e-16,
        1.0,
        0.0,
        0.0,
        -1.0,
        2.220446049250313e-16,
        0.0,
        0.0,
        0.0,
        0.0,
        1.0
      ],
      "name": "GLTF_SceneRootNode"
    },
    {
      "children": [
        4
      ],
      "matrix": [
        0.009999999776482582,
        0.0,
        0.0,
        0.0,
        0.0,
        0.009999999776482582,
        0.0,
        0.0,
        0.0,
        0.0,
        0.009999999776482582,
        0.0,
        0.0,
        0.0,
        0.0,
        1.0
      ],
      "name": "RootNode.0_0"
    },
    {
      "children": [
        5
      ],
      "name": "tiger.1_1"
    },
    {
      "mesh": 0,
      "name": "Object_5"
    }
  ],
  "samplers": [
    {
      "magFilter": 9729,
      "minFilter": 9987,
      "wrapS": 10497,
      "wrapT": 10497
    }
  ],
  "scene": 0,
  "scenes": [
    {
      "name": "Sketchfab_Scene",
      "nodes": [
        0
      ]
    }
  ],
  "textures": [
    {
      "sampler": 0,
      "source": 0
    },
    {
      "sampler": 0,
      "source": 1
    },
    {
      "sampler": 0,
      "source": 2
    },
    {
      "sampler": 0,
      "source": 3
    }
  ]
}
